<?xml version="1.0" encoding="UTF-8"?>
<svg id="Layer_1" data-name="Layer 1" xmlns="http://www.w3.org/2000/svg" xmlns:xlink="http://www.w3.org/1999/xlink" viewBox="0 0 150 150">
  <defs>
    <style>
      .cls-1 {
        fill: url(#linear-gradient);
      }
    </style>
    <linearGradient id="linear-gradient" x1="31.06" y1="37.6" x2="118.5" y2="125.04" gradientUnits="userSpaceOnUse">
      <stop offset=".43" stop-color="#00a6a6"/>
      <stop offset="1" stop-color="#1238dd"/>
    </linearGradient>
  </defs>
  <path class="cls-1" d="M55.03,55.47v13.28H19.24v-13.28h35.79ZM26.83,41.83h17.89v53.42c0,1.5.36,2.62,1.08,3.36.72.74,1.88,1.1,3.49,1.1.62,0,1.48-.07,2.59-.21,1.11-.14,1.91-.27,2.38-.41l2.31,13.02c-2.02.58-3.97.97-5.84,1.18-1.88.21-3.66.31-5.33.31-6.08,0-10.7-1.43-13.84-4.28-3.15-2.85-4.72-7.01-4.72-12.48v-55.01ZM93.74,80.08v32.71h-17.89V36.39h17.53v33.53h-1.13c1.4-4.55,3.6-8.21,6.59-11,2.99-2.79,7.01-4.18,12.07-4.18,4,0,7.48.89,10.46,2.67,2.97,1.78,5.28,4.29,6.92,7.54,1.64,3.25,2.46,7.02,2.46,11.33v36.5h-17.89v-33.02c0-3.21-.82-5.73-2.46-7.56-1.64-1.83-3.93-2.74-6.87-2.74-1.92,0-3.62.42-5.1,1.26-1.49.84-2.64,2.04-3.46,3.61-.82,1.57-1.23,3.49-1.23,5.74Z"/>
</svg>